# AST/ASF file generated using VICON BodyLanguage
# -----------------------------------------------
:version 1.10
:name VICON
:units
  mass 1.0
  length 0.45
  angle deg
:documentation
   .ast/.asf automatically generated from VICON data using
   VICON BodyBuilder and BodyLanguage model FoxedUp or BRILLIANT.MOD
:root
   order TX TY TZ RX RY RZ
   axis XYZ
   position 0 0 0  
   orientation 0 0 0 
:bonedata
  begin
     id 1 
     name lhipjoint
     direction 0.611823 -0.767273 0.19226 
     length 2.47422 
     axis 0 0 0  XYZ
  end
  begin
     id 2 
     name lfemur
     direction 0.34202 -0.939693 0  
     length 7.40835  
     axis 0 0 20  XYZ
    dof rx ry rz
    limits (-160.0 20.0)
           (-70.0 70.0)
           (-60.0 70.0)
  end
  begin
     id 3 
     name ltibia
     direction 0.34202 -0.939693 0   
     length 8.03679   
     axis 0 0 20   XYZ
    dof rx
    limits (-10.0 170.0)
  end
  begin
     id 4 
     name lfoot
     direction 0.0883598 -0.242766 0.966052   
     length 2.06694   
     axis -90 7.62852e-016 20   XYZ
    dof rx rz
    limits (-45.0 90.0)
           (-70.0 20.0)
  end
  begin
     id 5 
     name ltoes
     direction 1.53617e-011 -4.21699e-011 1   
     length 1.03711   
     axis -90 7.62852e-016 20   XYZ
    dof rx
    limits (-90.0 20.0)
  end
  begin
     id 6 
     name rhipjoint
     direction -0.590066 -0.783143 0.196236   
     length 2.42408  
     axis 0 0 0  XYZ 
  end
  begin
     id 7 
     name rfemur
     direction -0.34202 -0.939693 0   
     length 7.88987   
     axis 0 0 -20   XYZ
    dof rx ry rz
    limits (-160.0 20.0)
           (-70.0 70.0)
           (-70.0 60.0)
  end
  begin
     id 8 
     name rtibia
     direction -0.34202 -0.939693 0   
     length 7.87584   
     axis 0 0 -20   XYZ
    dof rx
    limits (-10.0 170.0)
 end
 begin
     id 9 
     name rfoot
     direction -0.130476 -0.358481 0.924374   
     length 2.21745  
     axis -90 -7.62852e-016 -20   XYZ
    dof rx rz
    limits (-45.0 90.0)
           (-20.0 70.0)
  end
  begin
     id 10 
     name rtoes
     direction 8.20695e-005 8.89091e-005 1   
     length 1.09536   
     axis -90 -7.62852e-016 -20   XYZ
    dof rx
    limits (-90.0 20.0)
  end
  begin
     id 11 
     name lowerback
     direction 0.00981224 0.999875 -0.0124197   
     length 1.94808   
     axis 0 0 0   XYZ
    dof rx ry rz
    limits (-20.0 45.0)
           (-30.0 30.0)
           (-30.0 30.0)
  end
  begin
     id 12 
     name upperback
     direction 0.038911 0.999194 0.00981686   
     length 1.94415   
     axis 0 0 0   XYZ
    dof rx ry rz
    limits (-20.0 45.0)
           (-30.0 30.0)
           (-30.0 30.0)
  end
  begin
     id 13 
     name thorax
     direction 0.0330692 0.999334 0.0154389   
     length 1.94117   
     axis 0 0 0   XYZ
    dof rx ry rz
    limits (-20.0 45.0)
           (-30.0 30.0)
           (-30.0 30.0)
  end
  begin
     id 14 
     name lowerneck
     direction -0.0374305 0.99415 0.10132   
     length 1.87291   
     axis 0 0 0   XYZ
    dof rx ry rz
    limits (-20.0 45.0)
           (-30.0 30.0)
           (-30.0 30.0)
  end
  begin
     id 15 
     name upperneck
     direction 0.0120692 0.985979 -0.166431   
     length 1.89248   
     axis 0 0 0   XYZ
    dof rx ry rz
    limits (-20.0 45.0)
           (-30.0 30.0)
           (-30.0 30.0)
  end
  begin
     id 16
     name head
     direction 0.00629908 0.997708 -0.06737  
     length 1.90559  
     axis 0 0 0   XYZ
    dof rx ry rz
    limits (-20.0 45.0)
           (-30.0 30.0)
           (-30.0 30.0)
  end
  begin
     id 17 
     name lclavicle
     direction 0.961536 0.27308 -0.0295863  
     length 3.52757  
     axis 0 0 0   XYZ
    dof ry rz
    limits (-20.0 10.0)
           (0.0 20.0)
  end
  begin
     id 18 
     name lhumerus
     direction 1 -4.48969e-011 2.61153e-029   
     length 5.14845   
     axis 180 -30 -90   XYZ
    dof rx ry rz
    limits (-60.0 90.0)
           (-90.0 90.0)
           (-90.0 90.0)
  end
  begin
     id 19
     name lradius
     direction 1 -4.4896e-011 -3.37549e-027   
     length 3.43674   
     axis 180 -30 -90   XYZ
    dof rx
    limits (-10.0 170.0)
  end
  begin
     id 20
     name lwrist
     direction 1 -4.48969e-011 2.56952e-028   
     length 1.71837   
     axis -5.12785e-016 90 90   XYZ
    dof ry
    limits (-180.0 0.0)
 end
  begin
     id 21 
     name lhand
     direction 1 -4.49094e-011 5.13905e-028   
     length 0.588709   
     axis -3.27915e-016 90 90   XYZ
    dof rx rz
    limits (-90.0 90.0)
           (-45.0 45.0)
  end
  begin
     id 22 
     name lfingers
     direction 1 -4.48821e-011 1.02781e-027   
     length 0.474633   
     axis -6.5583e-016 90 90   XYZ
    dof rx
    limits (0.0 90.0)
  end
  begin
     id 23
     name lthumb
     direction 0.707107 -6.34922e-011 0.707107   
     length 0.68148   
     axis -90 45 2.85299e-015   XYZ
    dof rx rz
    limits (-45.0 45.0)
           (-45.0 45.0)
  end
  begin
     id 24 
     name rclavicle
     direction -0.940964 0.333844 -0.0559866   
     length 3.55948  
     axis 0 0 0   XYZ 
    dof ry rz
    limits (-10.0 20.0)
           (-20.0 0.0)
  end
  begin
     id 25 
     name rhumerus
     direction -1 -4.48973e-011 3.15259e-027  
     length 5.42185   
     axis 180 30 90   XYZ
    dof rx ry rz
    limits (-90.0 60.0)
           (-90.0 90.0)
           (-90.0 90.0)
  end
  begin
     id 26 
     name rradius
     direction -1 -4.48954e-011 -2.56271e-027   
     length 3.51317   
     axis 180 30 90   XYZ
    dof rx
    limits (-10.0 170.0)
  end
  begin
     id 27 
     name rwrist
     direction -1 -4.48943e-011 2.56952e-028   
     length 1.75658   
     axis -5.12785e-016 -90 -90   XYZ
    dof ry
    limits (-180.0 0.0)
  end
  begin
     id 28
     name rhand
     direction -1 -4.4912e-011 5.13905e-028   
     length 0.663187   
     axis -3.27915e-016 -90 -90   XYZ
    dof rx rz
    limits (-90.0 90.0)
           (-45.0 45.0)
  end
  begin
     id 29
     name rfingers
     direction -1 -4.48914e-011 1.02781e-027   
     length 0.534679   
     axis -6.5583e-016 -90 -90   XYZ
    dof rx
    limits (0.0 90.0)
  end
  begin
     id 30
     name rthumb
     direction -0.707107 -6.35033e-011 0.707107   
     length 0.767695   
     axis -90 -45 -2.85299e-015   XYZ
    dof rx rz
    limits (-45.0 45.0)
           (-45.0 45.0)
  end
:hierarchy
  begin
    root lhipjoint rhipjoint lowerback
    lhipjoint lfemur
    lfemur ltibia
    ltibia lfoot
    lfoot ltoes
    rhipjoint rfemur
    rfemur rtibia
    rtibia rfoot
    rfoot rtoes
    lowerback upperback
    upperback thorax
    thorax lowerneck lclavicle rclavicle
    lowerneck upperneck
    upperneck head
    lclavicle lhumerus
    lhumerus lradius
    lradius lwrist
    lwrist lhand lthumb
    lhand lfingers
    rclavicle rhumerus
    rhumerus rradius
    rradius rwrist
    rwrist rhand rthumb
    rhand rfingers
  end

#!OML:ASF F:\VICON\USERDATA\INSTALL\Justin_a\Justin_a.ASF
:FULLY-SPECIFIED
:DEGREES
3553
root -4.40452 21.6622 -7.14032 -355.567 -199.175 365.308
lowerback 3.70575 0.811077 3.9981
upperback 1.66678 1.58821 5.14987
thorax -0.410565 0.937734 2.99722
lowerneck -7.23577 -5.03869 -3.5935
upperneck 39.6044 -0.240876 -3.44015
head 15.0856 0.586279 -0.395636
rclavicle 3.06128e-014 1.28812e-013
rhumerus -37.8455 0.664069 -78.0493
rradius 48.534
rwrist -2.22438
rhand -35.4318 14.5759
rfingers 7.12502
rthumb -8.56146 -15.2305
lclavicle 3.06128e-014 1.28812e-013
lhumerus -45.7168 13.6253 80.32
lradius 41.4325
lwrist 6.45263
lhand -18.7495 24.4442
lfingers 7.12502
lthumb 7.54691 54.2895
rfemur -32.5185 -1.1066 26.5231
rtibia 93.2653
rfoot -39.714 5.87762
rtoes -15.1517
lfemur -28.4299 -1.82737 -14.4102
ltibia 26.4388
lfoot 16.9471 2.18045
ltoes -5.69971
3554
root -4.39947 21.5231 -7.22775 -355.686 -199.389 365.434
lowerback 3.60553 0.810095 3.97807
upperback 1.68347 1.57223 5.11222
thorax -0.336201 0.928313 2.97233
lowerneck -7.2997 -5.00966 -3.45494
upperneck 39.6055 -0.258356 -3.42867
head 15.096 0.593688 -0.42004
rclavicle 3.10104e-014 -4.45278e-014
rhumerus -37.9697 0.60016 -77.9609
rradius 48.6617
rwrist -2.60651
rhand -35.408 14.6313
rfingers 7.12502
rthumb -8.53855 -15.176
lclavicle 3.10104e-014 -4.45278e-014
lhumerus -45.9191 13.5417 80.1289
lradius 41.5216
lwrist 6.47216
lhand -18.5922 24.3659
lfingers 7.12502
lthumb 7.69879 54.2057
rfemur -32.8405 -1.06549 26.5009
rtibia 94.949
rfoot -39.4684 6.2422
rtoes -15.3635
lfemur -27.6028 -2.45023 -14.1843
ltibia 25.7956
lfoot 17.2924 2.08665
ltoes -5.79975
3555
root -4.39326 21.3777 -7.31487 -355.85 -199.545 365.474
lowerback 3.60429 0.778735 3.82551
upperback 1.60367 1.52322 5.10483
thorax -0.420014 0.899381 3.05076
lowerneck -7.11315 -4.98141 -3.46085
upperneck 39.6449 -0.217135 -3.3748
head 15.0727 0.628488 -0.38692
rclavicle 9.93923e-015 2.38542e-014
rhumerus -38.2901 0.472333 -77.763
rradius 48.8845
rwrist -2.49402
rhand -35.3202 14.2537
rfingers 7.12502
rthumb -8.45381 -15.5571
lclavicle 9.93923e-015 2.38542e-014
lhumerus -46.2543 13.6672 79.8904
lradius 41.5654
lwrist 6.44956
lhand -18.2702 24.6186
lfingers 7.12502
lthumb 8.00957 54.4469
rfemur -33.0862 -1.06999 26.3346
rtibia 96.6925
rfoot -39.3757 6.72086
rtoes -15.1082
lfemur -26.8019 -2.98505 -14.095
ltibia 25.2255
lfoot 17.5359 1.78698
ltoes -6.14662
3556
root -4.38774 21.2275 -7.40495 -356.009 -199.798 365.445
lowerback 3.52259 0.77269 3.59602
upperback 1.54378 1.49829 5.11213
thorax -0.440891 0.882808 3.18869
lowerneck -6.8666 -4.89959 -3.572
upperneck 39.5162 -0.110905 -3.34135
head 14.9547 0.664942 -0.335652
rclavicle -2.06736e-014 -5.40694e-014
rhumerus -38.5687 0.356774 -77.4843
rradius 49.0635
rwrist -2.31523
rhand -35.3363 14.0702
rfingers 7.12502
rthumb -8.46937 -15.7399
lclavicle -2.06736e-014 -5.40694e-014
lhumerus -46.5569 13.8593 79.7066
lradius 41.5532
lwrist 6.31236
lhand -18.3003 24.8716
lfingers 7.12502
lthumb 7.9805 54.701
rfemur -33.4133 -1.03697 26.0521
rtibia 98.4675
rfoot -39.0549 7.53619
rtoes -14.1589
lfemur -26.0093 -3.37741 -14.1278
ltibia 24.7383
lfoot 17.7613 1.35749
ltoes -6.32604
3557
root -4.38139 21.0678 -7.49369 -356.074 -200.039 365.613
lowerback 3.40689 0.809871 3.6419
upperback 1.55002 1.53484 5.05893
thorax -0.368041 0.899518 3.1087
lowerneck -6.88942 -4.8488 -3.55642
upperneck 39.4802 -0.117321 -3.21113
head 14.9401 0.673947 -0.28625
rclavicle 3.8763e-014 1.59028e-015
rhumerus -38.7748 0.0441891 -77.3141
rradius 49.2004
rwrist -2.22953
rhand -35.5871 13.9098
rfingers 7.12502
rthumb -8.71141 -15.8905
lclavicle 3.8763e-014 1.59028e-015
lhumerus -46.5847 13.7376 79.5054
lradius 41.488
lwrist 6.43465
lhand -18.5281 24.7182
lfingers 7.12502
lthumb 7.7606 54.5557
rfemur -33.8239 -0.997666 25.9921
rtibia 100.26
rfoot -38.6304 8.29133
rtoes -13.3767
lfemur -25.3265 -3.82262 -13.95
ltibia 24.3226
lfoot 18.0633 0.576932
ltoes -7.48251
3558
root -4.37951 20.9052 -7.58502 -356.256 -200.066 365.747
lowerback 3.35682 0.768889 3.75233
upperback 1.60591 1.47077 4.96897
thorax -0.275571 0.866793 2.95757
lowerneck -6.98577 -4.8243 -3.50615
upperneck 39.5137 -0.166647 -3.05794
head 14.976 0.672319 -0.239959
rclavicle 1.76918e-014 -4.53229e-014
rhumerus -38.8779 -0.313691 -77.1708
rradius 49.2563
rwrist -2.22719
rhand -35.7222 14.2842
rfingers 7.12502
rthumb -8.84169 -15.5106
lclavicle 1.76918e-014 -4.53229e-014
lhumerus -46.5815 13.595 79.3226
lradius 41.4533
lwrist 6.60253
lhand -18.4763 24.6675
lfingers 7.12502
lthumb 7.81068 54.5033
rfemur -34.0754 -1.1522 25.8421
rtibia 102.041
rfoot -38.27 9.1217
rtoes -12.8689
lfemur -24.5579 -4.51687 -13.834
ltibia 24.0299
lfoot 18.2327 -0.0817167
ltoes -7.87612
3559
root -4.3753 20.744 -7.6768 -356.46 -200.035 365.88
lowerback 3.37054 0.681602 3.72748
upperback 1.63745 1.35504 4.98881
thorax -0.249008 0.810075 2.99642
lowerneck -7.08938 -4.75542 -3.51182
upperneck 39.523 -0.0793866 -3.04793
head 15.0052 0.703674 -0.224116
rclavicle -2.05742e-014 4.29375e-014
rhumerus -39.0667 -0.50908 -76.9484
rradius 49.3862
rwrist -2.2581
rhand -36.0291 14.3173
rfingers 7.12502
rthumb -9.13792 -15.4648
lclavicle -2.05742e-014 4.29375e-014
lhumerus -46.6956 13.7467 79.1554
lradius 41.3866
lwrist 6.50254
lhand -18.6138 24.4004
lfingers 7.12502
lthumb 7.67792 54.2411
rfemur -34.2382 -1.31903 25.6639
rtibia 103.784
rfoot -37.8916 10.0742
rtoes -12.389
lfemur -23.8081 -4.98885 -13.8066
ltibia 23.8886
lfoot 18.2896 -0.896665
ltoes -8.82418
3560
root -4.37117 20.5777 -7.76914 -356.694 -200.142 365.88
lowerback 3.39018 0.655715 3.52501
upperback 1.82118 1.30962 5.01744
thorax -0.0746213 0.789839 3.14352
lowerneck -7.65236 -4.67258 -3.48977
upperneck 39.5802 0.0390286 -3.13333
head 15.166 0.718564 -0.255289
rclavicle 3.74709e-014 3.57812e-014
rhumerus -38.8585 -0.67434 -76.6809
rradius 49.449
rwrist -2.39133
rhand -36.2515 13.852
rfingers 7.12502
rthumb -9.3525 -15.9205
lclavicle 3.74709e-014 3.57812e-014
lhumerus -46.3738 14.1192 79.1184
lradius 41.1212
lwrist 6.18466
lhand -18.5672 24.3248
lfingers 7.12502
lthumb 7.72286 54.1637
rfemur -34.4665 -1.45091 25.262
rtibia 105.565
rfoot -37.4752 11.0846
rtoes -12.0426
lfemur -23.1083 -5.35721 -13.9453
ltibia 23.8893
lfoot 18.3264 -1.20742
ltoes -8.46878
3561
root -4.36403 20.4002 -7.86221 -356.864 -200.423 366.037
lowerback 3.40349 0.69834 3.48758
upperback 1.8901 1.36316 5.01728
thorax -0.0134835 0.817318 3.16327
lowerneck -7.78389 -4.6152 -3.53717
upperneck 39.5599 0.0964618 -3.0951
head 15.1877 0.730664 -0.225002
rclavicle -7.35503e-015 2.06736e-014
rhumerus -38.9433 -0.870281 -76.5072
rradius 49.4773
rwrist -2.52657
rhand -36.1523 14.0953
rfingers 7.12502
rthumb -9.25672 -15.6815
lclavicle -7.35503e-015 2.06736e-014
lhumerus -46.3671 14.2521 78.9888
lradius 41.0836
lwrist 6.1391
lhand -18.773 24.2521
lfingers 7.12502
lthumb 7.52428 54.0982
rfemur -34.6821 -1.29799 24.9982
rtibia 107.329
rfoot -37.0362 12.2477
rtoes -12.0552
lfemur -22.4375 -5.36652 -13.9857
ltibia 24.0163
lfoot 18.4642 -1.50683
ltoes -8.12458
3562
root -4.36034 20.2157 -7.95307 -356.92 -200.61 366.133
lowerback 3.29957 0.740739 3.49043
upperback 1.87102 1.40315 4.92666
thorax 0.0263344 0.833549 3.06784
lowerneck -7.73906 -4.61481 -3.5011
upperneck 39.5086 0.0265681 -3.01111
head 15.1487 0.712715 -0.207061
rclavicle -4.37326e-015 -5.56597e-014
rhumerus -39.182 -1.22 -76.3683
rradius 49.4944
rwrist -2.60118
rhand -35.9054 14.3296
rfingers 7.12502
rthumb -9.01856 -15.4576
lclavicle -4.37326e-015 -5.56597e-014
lhumerus -46.3479 14.1924 78.7766
lradius 40.9255
lwrist 6.12769
lhand -18.6707 24.0914
lfingers 7.12502
lthumb 7.623 53.934
rfemur -35.0905 -1.19502 24.6346
rtibia 109.132
rfoot -36.7295 13.3855
rtoes -12.2718
lfemur -22.0109 -5.19403 -14.1478
ltibia 24.3079
lfoot 18.8558 -1.94456
ltoes -8.48022
3563
root -4.35865 20.0282 -8.04259 -356.945 -200.698 366.3
lowerback 3.24459 0.746325 3.47634
upperback 1.8396 1.40603 4.9249
thorax 0.0244526 0.833879 3.07441
lowerneck -7.77342 -4.60775 -3.36379
upperneck 39.4699 0.0219258 -3.11861
head 15.1339 0.712319 -0.278961
rclavicle -3.60794e-014 6.67916e-014
rhumerus -39.4592 -1.42865 -76.1593
rradius 49.6582
rwrist -2.68484
rhand -35.8473 14.3424
rfingers 7.12502
rthumb -8.96247 -15.4472
lclavicle -3.60794e-014 6.67916e-014
lhumerus -46.3623 14.2827 78.6402
lradius 40.8514
lwrist 6.05278
lhand -18.743 24.3778
lfingers 7.12502
lthumb 7.55319 54.2229
rfemur -35.5507 -1.16838 24.2966
rtibia 110.945
rfoot -36.0655 15.0228
rtoes -10.6739
lfemur -21.718 -5.21233 -14.1814
ltibia 24.7879
lfoot 19.514 -1.3997
ltoes -5.46211
3564
root -4.35591 19.8386 -8.1331 -356.977 -200.748 366.485
lowerback 3.21343 0.745108 3.43155
upperback 1.82347 1.40249 4.94943
thorax 0.0237584 0.83187 3.12548
lowerneck -7.88247 -4.58617 -3.34263
upperneck 39.3872 0.00872932 -3.13526
head 15.1168 0.694809 -0.294978
rclavicle 1.60022e-014 8.82604e-014
rhumerus -39.7262 -1.49628 -75.9771
rradius 49.8525
rwrist -3.0001
rhand -35.925 14.0096
rfingers 7.12502
rthumb -9.03745 -15.7768
lclavicle 1.60022e-014 8.82604e-014
lhumerus -46.3482 14.332 78.5532
lradius 40.8333
lwrist 6.10649
lhand -18.5482 24.6875
lfingers 7.12502
lthumb 7.7412 54.5258
rfemur -35.9344 -1.20126 23.9341
rtibia 112.685
rfoot -35.0551 17.0008
rtoes -8.08774
lfemur -21.4397 -5.24229 -14.1946
ltibia 25.3878
lfoot 20.0632 -0.457942
ltoes -0.722706
3565
root -4.35033 19.6362 -8.21578 -356.942 -200.749 366.857
lowerback 3.3293 0.739993 3.48387
upperback 1.73834 1.41663 5.02846
thorax -0.130087 0.840565 3.17427
lowerneck -7.87269 -4.58929 -3.44104
upperneck 39.2935 -0.0800712 -2.97554
head 15.068 0.654205 -0.224961
rclavicle 1.6201e-014 -1.43125e-014
rhumerus -40.0823 -1.586 -75.8051
rradius 50.0002
rwrist -3.23179
rhand -35.969 13.6419
rfingers 7.12502
rthumb -9.07984 -16.1427
lclavicle 1.6201e-014 -1.43125e-014
lhumerus -46.4096 14.3445 78.4336
lradius 40.8429
lwrist 6.14137
lhand -18.3517 24.515
lfingers 7.12502
lthumb 7.9309 54.3463
rfemur -36.4162 -1.21576 23.815
rtibia 114.479
rfoot -34.0509 18.6428
rtoes -6.05509
lfemur -21.1917 -4.89719 -14.0794
ltibia 26.0717
lfoot 20.0771 -0.324193
ltoes 0.193443
3566
root -4.34582 19.4251 -8.30065 -357.015 -200.701 367.064
lowerback 3.43418 0.740679 3.42862
upperback 1.71253 1.42447 5.03622
thorax -0.217093 0.843576 3.21061
lowerneck -8.01051 -4.58949 -3.32994
upperneck 39.2222 -0.165963 -2.94802
head 15.0601 0.623754 -0.249368
rclavicle 4.60187e-014 3.49861e-014
rhumerus -40.396 -1.80263 -75.6236
rradius 50.1262
rwrist -3.27615
rhand -35.9163 13.662
rfingers 7.12502
rthumb -9.02908 -16.1248
lclavicle 4.60187e-014 3.49861e-014
lhumerus -46.2916 14.3827 78.298
lradius 40.7233
lwrist 6.1779
lhand -18.5211 24.5257
lfingers 7.12502
lthumb 7.76736 54.363
rfemur -36.8206 -1.41751 23.4513
rtibia 116.304
rfoot -33.2862 20.1471
rtoes -5.78786
lfemur -20.9085 -4.52814 -14.1691
ltibia 26.8594
lfoot 19.6756 -0.555852
ltoes -2.42988
